<svg width="16" height="14" viewBox="0 0 16 14" fill="none" xmlns="http://www.w3.org/2000/svg">
<path d="M10.7904 11.9117L9.17617 10.2975C8.80858 10.4286 8.41263 10.5 8 10.5C6.067 10.5 4.5 8.933 4.5 7.00001C4.5 6.58738 4.5714 6.19143 4.70253 5.82384L2.64112 3.76243C0.938717 5.27903 0 7.00001 0 7.00001C0 7.00001 3 12.5 8 12.5C9.01539 12.5 9.9483 12.2732 10.7904 11.9117Z" fill="black"/>
<path d="M5.20967 2.08834C6.05172 1.72683 6.98462 1.50001 8 1.50001C13 1.50001 16 7.00001 16 7.00001C16 7.00001 15.0613 8.72098 13.3589 10.2376L11.2975 8.17615C11.4286 7.80857 11.5 7.41263 11.5 7.00001C11.5 5.06701 9.933 3.50001 8 3.50001C7.58738 3.50001 7.19144 3.57141 6.82386 3.70253L5.20967 2.08834Z" fill="black"/>
<path d="M5.52485 6.64616C5.50847 6.76175 5.5 6.87989 5.5 7.00001C5.5 8.38072 6.61929 9.50001 8 9.50001C8.12012 9.50001 8.23825 9.49154 8.35385 9.47516L5.52485 6.64616Z" fill="black"/>
<path d="M10.4752 7.35383L7.64618 4.52485C7.76176 4.50848 7.87989 4.50001 8 4.50001C9.38071 4.50001 10.5 5.6193 10.5 7.00001C10.5 7.12011 10.4915 7.23824 10.4752 7.35383Z" fill="black"/>
<path fill-rule="evenodd" clip-rule="evenodd" d="M13.6464 13.3536L1.64645 1.35356L2.35355 0.646454L14.3536 12.6465L13.6464 13.3536Z" fill="black"/>
</svg>
